<svg width="64" height="64" viewBox="0 0 64 64" fill="none" xmlns="http://www.w3.org/2000/svg">
<rect width="64" height="64" fill="white"/>
<path d="M46.3843 29.0207C46.3843 29.0207 43.0442 27.5839 40.3927 27.0194C39.5759 26.8453 39.0825 26.0691 39.3291 25.3617L40.0978 23.1544C40.0978 23.1544 32.7809 25.0418 29.9833 27.2789C29.9833 27.2789 33.9789 20.5955 37.5418 16.9288L34.9251 17.0448C33.5806 17.1044 32.4054 16.1367 32.3422 14.9183L32.1204 10.6539L25.2973 16.0312C24.3887 16.7473 22.9913 16.6841 22.0945 15.886L21.2158 15.1035C21.2158 15.1035 19.9687 23.6041 20.0607 26.8405L15.035 22.8706L15.1844 24.3406C15.317 25.6485 14.1926 26.7352 12.7414 26.7011L8.21513 26.5944L10.8364 31.4538C11.3306 32.37 10.8708 33.4392 9.83922 33.7727L8.36586 34.2481C8.36586 34.2481 13.7735 35.2913 17.602 37.9646C18.0853 38.3019 18.2568 38.8873 18.0235 39.3766L17.1171 41.271C17.1171 41.271 18.9211 40.3897 21.5037 40.3364C21.2983 35.985 22.0879 29.8142 26.4531 23.4404C26.4531 23.4404 24.217 27.3137 23.2968 32.6357C21.5381 40.741 24.1487 46.8165 24.1487 46.8165L24.7199 46.9359C25.681 47.1365 26.4541 46.2883 26.0537 45.4682C25.3108 43.9384 24.7705 42.3217 24.446 40.6578C25.722 40.9693 27.0743 41.5372 28.4239 42.4955L28.4379 39.305C28.4404 38.787 28.7794 38.3328 29.3029 38.14C31.0205 37.5084 35.3284 36.2123 42.4335 35.9175L40.8123 34.1798C40.3082 33.6365 40.3595 32.847 40.9341 32.4065C42.3517 31.3193 44.9026 29.4683 46.3843 29.0207Z" fill="#EC8525"/>
<path d="M33.8099 15.3134C35.4453 14.6682 37.2267 14.3455 39.1541 14.3455C43.1196 14.3455 46.4663 15.7113 49.1943 18.4428C51.9238 21.1758 53.2886 24.6849 53.2886 28.9701C53.2886 31.7613 52.1303 34.9552 49.8138 38.5515C47.4973 42.1495 43.9441 46.15 39.1541 50.5531C35.448 47.1465 32.4823 43.9808 30.257 41.0561L30.7392 45.1781C29.1683 44.3203 27.6331 43.7746 26.1702 43.4563C29.2552 47.6081 33.5831 52.0573 39.1541 56.8039C45.4753 51.418 50.197 46.415 53.3192 41.7949C56.4398 37.1764 58.0001 32.9014 58.0001 28.9701C58.0001 23.0731 56.1053 18.3751 52.3156 14.8763C48.5276 11.3774 44.1404 9.62793 39.1541 9.62793C38.4009 9.62793 37.6614 9.66784 36.9355 9.74767C35.8175 11.5733 34.7497 13.5113 33.8099 15.3134Z" fill="#252D43"/>
</svg>
