<svg width="147" height="56" viewBox="0 0 147 56" fill="none" xmlns="http://www.w3.org/2000/svg">
<path d="M0 33.1207C0 31.1993 0.219478 29.3192 0.658432 27.4802C1.12482 25.6137 1.76954 23.8571 2.59258 22.2102C3.41562 20.5359 4.38955 19.0126 5.51437 17.6402C6.66662 16.2404 7.9149 15.0327 9.2592 14.0171C10.6309 13.0015 12.085 12.2193 13.6213 11.6703C15.1577 11.0939 16.7351 10.8057 18.3538 10.8057C20.2468 10.8057 21.7145 11.2037 22.7571 11.9997C23.827 12.7957 24.362 13.9073 24.362 15.3346C24.362 15.8835 24.2797 16.4462 24.1151 17.0226C23.9779 17.599 23.7584 18.1754 23.4566 18.7518C23.1823 19.3008 22.8531 19.836 22.469 20.3575C22.0849 20.879 21.6597 21.3319 21.1933 21.7162C20.48 21.6064 19.8627 21.2907 19.3414 20.7692C18.8202 20.2203 18.491 19.589 18.3538 18.8753C19.314 18.0794 20.0685 17.2559 20.6172 16.405C21.1933 15.5267 21.4813 14.7307 21.4813 14.0171C21.4813 12.8094 20.7269 12.2056 19.218 12.2056C18.587 12.2056 17.9286 12.3428 17.2427 12.6173C16.5843 12.8643 15.9121 13.2211 15.2262 13.6877C14.5404 14.1543 13.8682 14.717 13.2098 15.3758C12.5788 16.0345 11.989 16.7619 11.4403 17.5578C7.62684 23.0474 5.72013 28.6604 5.72013 34.397C5.72013 36.4281 6.03563 38.0613 6.66662 39.2964C7.29762 40.5316 8.13438 41.2589 9.1769 41.4785C10.3566 41.204 11.8712 40.5847 13.6819 39.3496C15.4925 38.1144 16.0158 37.1755 16.7489 36.0926C17.0232 36.367 17.1878 36.6552 17.2427 36.9572C16.4471 38.0002 18.4635 37.3065 17.6131 38.2671C16.7626 39.2278 15.9121 40.1061 15.0616 40.9021C14.2386 41.6981 13.4156 42.398 12.5925 43.0019C11.7969 43.6057 11.0562 44.0723 10.3703 44.4017C6.96841 44.3468 4.38955 43.3724 2.63373 41.4785C0.87791 39.5846 0 36.7987 0 33.1207Z" fill="white"/>
<path d="M30.0864 22.9959C30.3612 22.9915 30.6781 23.0414 31.0371 23.1456C31.4231 23.2219 31.7686 23.34 32.0735 23.5001C32.3779 23.6326 32.6277 23.7798 32.8226 23.9416C33.0451 24.1029 33.1575 24.2523 33.1596 24.3897C32.6285 25.5526 32.1389 26.7286 31.6906 27.9177C31.2419 29.0792 30.8613 30.1985 30.5487 31.2755C30.2361 32.3524 29.9911 33.3596 29.8137 34.2969C29.6638 35.2338 29.5943 36.0458 29.6053 36.7327C29.6176 37.5021 29.7104 38.1466 29.8836 38.666C30.0564 39.158 30.3369 39.5108 30.7251 39.7245C30.3989 39.9496 29.9758 40.1351 29.4559 40.2808C28.936 40.4265 28.4699 40.5027 28.0578 40.5093C26.5739 40.533 25.8157 39.5282 25.7832 37.4948C25.7581 35.9285 26.2459 33.7768 27.2466 31.0397C26.7173 32.3125 26.1044 33.5179 25.408 34.656C24.7111 35.7666 23.9985 36.7537 23.2702 37.6174C22.5419 38.4811 21.7974 39.1939 21.0368 39.7558C20.3033 40.2898 19.6213 40.6168 18.9911 40.7368C17.9735 40.6981 17.1414 40.2304 16.4949 39.3337C15.848 38.4096 15.513 37.233 15.4902 35.8041C15.4656 34.2653 15.7694 32.6388 16.4016 30.9246C17.0339 29.2103 17.8467 27.6169 18.8401 26.1442C19.861 24.6712 20.9683 23.4441 22.162 22.463C23.3552 21.4544 24.5147 20.9136 25.6405 20.8406C25.9166 20.9187 26.2215 21.0787 26.5552 21.3208C26.9164 21.5623 27.2507 21.8456 27.5583 22.1705C27.8933 22.495 28.1736 22.8341 28.3991 23.1878C28.6242 23.514 28.7525 23.8006 28.7839 24.0474C27.6874 24.2299 26.5556 24.784 25.3885 25.7097C24.2489 26.6349 23.2086 27.751 22.2675 29.0579C21.3534 30.3369 20.6058 31.7094 20.0245 33.1754C19.4433 34.6415 19.1628 36.0065 19.183 37.2705C19.1914 37.7926 19.389 38.1193 19.7759 38.2505C20.5701 38.0729 21.4799 37.3849 22.5052 36.1867C23.53 34.9609 24.7644 33.0858 26.2083 30.5615C26.4751 30.0625 26.7686 29.5081 27.0887 28.8983C27.4362 28.2881 27.7834 27.6503 28.13 26.9851C28.4767 26.3199 28.8096 25.6549 29.1288 24.9902C29.4751 24.2975 29.7943 23.6327 30.0864 22.9959Z" fill="white"/>
<path d="M64.3329 20.1109C64.6082 20.1109 64.9248 20.166 65.2826 20.2763C65.668 20.359 66.0121 20.483 66.3149 20.6483C66.6177 20.7861 66.8654 20.9377 67.0581 21.1031C67.2783 21.2684 67.3884 21.42 67.3884 21.5578C66.8379 22.7153 66.3286 23.8866 65.8607 25.0717C65.3927 26.2292 64.9936 27.3454 64.6633 28.4203C64.3329 29.4951 64.0714 30.5011 63.8787 31.4381C63.7136 32.3751 63.631 33.1882 63.631 33.8772C63.631 34.6488 63.7136 35.2965 63.8787 35.8201C64.0439 36.3162 64.3192 36.6745 64.7045 36.895C64.3742 37.1155 63.9476 37.2946 63.4246 37.4324C62.9016 37.5702 62.4336 37.6391 62.0207 37.6391C60.5343 37.6391 59.791 36.6194 59.791 34.5799C59.791 33.009 60.314 30.8593 61.3601 28.1309C60.8095 29.3987 60.1764 30.5975 59.4607 31.7275C58.745 32.8299 58.0156 33.8083 57.2724 34.6626C56.5291 35.517 55.7722 36.2198 55.0014 36.771C54.2582 37.2946 53.57 37.6115 52.9369 37.7218C51.9184 37.6667 51.0926 37.1844 50.4595 36.2749C49.8264 35.3378 49.5098 34.1528 49.5098 32.7196C49.5098 31.1763 49.8402 29.5502 50.5008 27.8415C51.1614 26.1328 52.001 24.5481 53.0195 23.0874C54.0655 21.6267 55.1941 20.4141 56.4053 19.4495C57.6164 18.4573 58.7863 17.9337 59.9149 17.8786C60.1902 17.9612 60.493 18.1266 60.8233 18.3746C61.1811 18.6227 61.5115 18.9121 61.8143 19.2428C62.1446 19.5735 62.4198 19.918 62.64 20.2763C62.8603 20.607 62.9841 20.8964 63.0117 21.1444C61.9106 21.3098 60.7682 21.8472 59.5846 22.7567C58.4285 23.6662 57.3687 24.7686 56.4053 26.0639C55.4694 27.3316 54.6986 28.6959 54.093 30.1566C53.4874 31.6172 53.1846 32.9815 53.1846 34.2492C53.1846 34.7729 53.3773 35.1036 53.7627 35.2414C54.561 35.076 55.4831 34.4008 56.5291 33.2157C57.5751 32.0031 58.8414 30.1428 60.3278 27.6348C60.6031 27.1387 60.9059 26.5875 61.2362 25.9812C61.594 25.3749 61.9519 24.741 62.3097 24.0796C62.6676 23.4181 63.0117 22.7567 63.342 22.0952C63.6998 21.4062 64.0301 20.7448 64.3329 20.1109Z" fill="white"/>
<path d="M96.7501 16.5524C97.0254 16.5524 97.3419 16.607 97.6998 16.7161C98.0851 16.798 98.4292 16.9208 98.732 17.0845C99.0348 17.2209 99.2825 17.371 99.4752 17.5347C99.6954 17.6985 99.8055 17.8485 99.8055 17.985C99.255 19.131 98.7458 20.2907 98.2778 21.4641C97.8099 22.6101 97.4107 23.7153 97.0804 24.7795C96.7501 25.8437 96.4886 26.8397 96.2959 27.7674C96.1307 28.6952 96.0482 29.5002 96.0482 30.1823C96.0482 30.9464 96.1307 31.5876 96.2959 32.1061C96.4611 32.5973 96.7363 32.952 97.1217 33.1703C96.7914 33.3886 96.3647 33.5659 95.8417 33.7024C95.3187 33.8388 94.8508 33.907 94.4379 33.907C92.9514 33.907 92.2082 32.8974 92.2082 30.8782C92.2082 29.3228 92.7312 27.1944 93.7772 24.493C93.2267 25.7482 92.5936 26.9352 91.8779 28.0539C91.1622 29.1454 90.4327 30.1141 89.6895 30.96C88.9463 31.8059 88.1893 32.5018 87.4186 33.0475C86.6753 33.5659 85.9872 33.8798 85.3541 33.9889C84.3356 33.9343 83.5098 33.4568 82.8767 32.5563C82.2436 31.6286 81.927 30.4552 81.927 29.0363C81.927 27.5082 82.2573 25.8983 82.918 24.2064C83.5786 22.5146 84.4182 20.9456 85.4366 19.4994C86.4827 18.0532 87.6113 16.8526 88.8224 15.8975C90.0336 14.9152 91.2035 14.3967 92.3321 14.3421C92.6073 14.424 92.9101 14.5877 93.2404 14.8333C93.5983 15.0789 93.9286 15.3654 94.2314 15.6929C94.5617 16.0203 94.837 16.3614 95.0572 16.7161C95.2774 17.0436 95.4013 17.3301 95.4288 17.5757C94.3277 17.7394 93.1854 18.2715 92.0017 19.172C90.8456 20.0724 89.7859 21.1639 88.8224 22.4464C87.8865 23.7016 87.1158 25.0524 86.5102 26.4986C85.9046 27.9448 85.6018 29.2955 85.6018 30.5507C85.6018 31.0692 85.7945 31.3966 86.1799 31.5331C86.9781 31.3693 87.9003 30.7008 88.9463 29.5274C89.9923 28.3268 91.2585 26.4849 92.745 24.0018C93.0202 23.5106 93.323 22.9649 93.6534 22.3646C94.0112 21.7642 94.369 21.1366 94.7269 20.4818C95.0847 19.8269 95.4288 19.172 95.7591 18.5171C96.117 17.8349 96.4473 17.18 96.7501 16.5524Z" fill="white"/>
<path d="M38.4383 16.8962C39.1535 17.1156 39.8275 17.6091 40.4603 18.3769C41.093 19.1172 41.5607 19.9398 41.8633 20.8447C41.5607 21.585 41.093 22.4761 40.4603 23.5181C39.8275 24.56 39.1948 25.6294 38.5621 26.7262C37.9293 27.7956 37.3516 28.8238 36.8289 29.8109C36.3337 30.7706 36.0449 31.5658 35.9623 32.1965C36.4025 31.7303 36.8839 31.1956 37.4066 30.5924C37.9568 29.9617 38.4795 29.3448 38.9747 28.7416C39.4974 28.1109 39.9788 27.5488 40.419 27.0552C40.8592 26.5343 41.2031 26.1504 41.4507 25.9036C41.9733 25.3552 42.5923 24.7246 43.3076 24.0116C44.0229 23.2713 44.7656 22.5858 45.5359 21.9552C46.3337 21.2971 47.1315 20.7487 47.9293 20.31C48.7271 19.8438 49.4562 19.6108 50.1164 19.6108C50.8317 19.6108 51.4231 19.8576 51.8908 20.3511C52.386 20.8172 52.7712 21.3108 53.0463 21.8318C53.0463 21.8866 52.9362 21.9689 52.7161 22.0786C52.5236 22.1608 52.2347 22.4213 51.8496 22.86C51.4644 23.3536 51.0243 24.0391 50.5291 24.9165C50.0614 25.7665 49.5937 26.6988 49.126 27.7133C48.6859 28.7004 48.3145 29.715 48.0119 30.7569C47.7093 31.7989 47.5579 32.7448 47.5579 33.5949C47.5579 34.2804 47.6405 34.7191 47.8055 34.911C47.9981 35.1029 48.2595 35.1989 48.5896 35.1989C48.8922 35.1989 49.2086 35.1304 49.5387 34.9933C49.8688 34.8562 50.1302 34.7876 50.3227 34.7876C50.4328 34.8425 50.5153 34.9659 50.5703 35.1578C50.6529 35.3223 50.6941 35.4731 50.6941 35.6102C50.474 35.8022 50.2127 35.9941 49.9101 36.186C49.6075 36.378 49.2911 36.5562 48.961 36.7207C48.6308 36.8852 48.3007 37.0223 47.9706 37.132C47.668 37.2417 47.3929 37.2965 47.1453 37.2965C46.3475 37.2965 45.6872 37.1731 45.1645 36.9264C44.6694 36.707 44.2705 36.4054 43.9678 36.0215C43.6927 35.6376 43.5002 35.1852 43.3901 34.6642C43.2801 34.1158 43.2251 33.54 43.2251 32.9368C43.2251 32.6077 43.2526 32.2376 43.3076 31.8263C43.3626 31.415 43.4727 30.9351 43.6377 30.3867C43.8028 29.8109 44.0366 29.1391 44.3392 28.3714C44.6419 27.5762 45.027 26.6302 45.4947 25.5334C45.4397 25.5334 45.0683 25.7254 44.3805 26.1093C43.6927 26.4931 42.95 27.0827 42.1522 27.8778C40.8592 29.1117 39.69 30.3319 38.6446 31.5384C37.6267 32.7448 36.5813 34.0884 35.5084 35.5691C34.9032 36.4191 34.3667 37.132 33.8991 37.7078C33.4589 38.3111 33.0738 38.7086 32.7436 38.9006C32.1659 38.5716 31.7395 38.1054 31.4644 37.5022C31.1893 36.9264 30.983 36.3231 30.8454 35.6925C30.8454 35.1715 30.9142 34.5134 31.0517 33.7183C31.2168 32.9231 31.4231 32.0456 31.6707 31.086C31.9458 30.0988 32.276 29.0706 32.6611 28.0012C33.0462 26.9319 33.4727 25.8625 33.9403 24.7931C34.9857 22.3802 35.9348 20.4882 36.7877 19.1172C37.668 17.7462 38.2182 17.0059 38.4383 16.8962Z" fill="white"/>
<path d="M75.5263 15.0301C76.0749 15.0301 76.7057 15.1953 77.4189 15.5256C78.132 15.8559 78.7629 16.2826 79.3114 16.8056C79.1743 15.7045 78.996 14.6722 78.7766 13.7088C78.5846 12.7178 78.2829 11.6993 77.8715 10.6532C77.4874 9.60716 76.9663 8.46476 76.308 7.22601C75.6497 5.98727 74.8269 4.56959 73.8395 2.97299C73.9218 2.72524 74.1 2.4362 74.3743 2.10587C74.676 1.77553 75.0052 1.47273 75.3617 1.19745C75.7457 0.894649 76.1297 0.633137 76.5137 0.412915C76.9252 0.192693 77.3092 0.0550546 77.6657 0C78.4337 0.853358 79.1606 1.92694 79.8463 3.22074C80.532 4.48701 81.1354 5.86339 81.6566 7.34989C82.1777 8.80885 82.5754 10.3229 82.8497 11.892C83.1514 13.461 83.3023 14.9613 83.3023 16.3927C83.3023 17.8242 83.1377 19.2969 82.8086 20.8109C82.5069 22.3249 82.068 23.8114 81.492 25.2704C80.9434 26.7018 80.2989 28.0645 79.5583 29.3583C78.8177 30.6521 78.0086 31.8082 77.1309 32.8267C76.2806 33.8453 75.3892 34.6711 74.4566 35.3042C73.524 35.9649 72.5915 36.3778 71.6589 36.543C69.7663 36.3228 68.3126 35.7034 67.2978 34.6849C66.3104 33.6939 65.8167 32.3175 65.8167 30.5557C65.8167 29.6198 65.9538 28.6012 66.2281 27.5001C66.5298 26.399 66.9138 25.3117 67.3801 24.2381C67.8738 23.137 68.4361 22.0772 69.0669 21.0587C69.7252 20.0126 70.4109 19.0767 71.1241 18.2508C71.8646 17.425 72.6052 16.7231 73.3458 16.145C74.0863 15.5669 74.8132 15.1953 75.5263 15.0301ZM71.3298 34.8913C72.2898 34.561 73.2498 33.8315 74.2097 32.7029C75.1697 31.5742 76.0337 30.2529 76.8017 28.7389C77.5697 27.1973 78.1869 25.5594 78.6532 23.8252C79.1469 22.0634 79.3937 20.3705 79.3937 18.7463C79.3937 18.2784 79.3937 17.9893 79.3937 17.8792C79.3937 17.7691 79.38 17.659 79.3526 17.5489C78.6943 17.8242 77.9949 18.2921 77.2543 18.9528C76.5137 19.6135 75.7732 20.3842 75.0326 21.2651C74.292 22.1185 73.5926 23.0544 72.9343 24.0729C72.276 25.0915 71.6863 26.11 71.1652 27.1285C70.6441 28.147 70.2326 29.1243 69.9309 30.0602C69.6292 30.9962 69.4783 31.822 69.4783 32.5377C69.4783 33.9141 70.0955 34.6986 71.3298 34.8913Z" fill="white"/>
<path d="M42.7197 53.7269V44.7491H45.785C46.8367 44.7491 47.7003 44.9372 48.3757 45.3134C49.0598 45.6811 49.5642 46.2027 49.8891 46.8781C50.2226 47.5451 50.3893 48.3317 50.3893 49.238C50.3893 50.1443 50.2226 50.9352 49.8891 51.6107C49.5642 52.2776 49.0598 52.7992 48.3757 53.1754C47.7003 53.5431 46.8367 53.7269 45.785 53.7269H42.7197ZM44.3614 52.3161H45.708C46.4605 52.3161 47.0547 52.1964 47.4908 51.957C47.9268 51.709 48.2389 51.3585 48.427 50.9053C48.6151 50.4436 48.7092 49.8878 48.7092 49.238C48.7092 48.5967 48.6151 48.0452 48.427 47.5835C48.2389 47.1218 47.9268 46.767 47.4908 46.519C47.0547 46.2711 46.4605 46.1471 45.708 46.1471H44.3614V52.3161Z" fill="white"/>
<path d="M54.0822 53.7269V44.7491H55.7239V53.7269H54.0822Z" fill="white"/>
<path d="M62.7737 53.8808C62.1153 53.8808 61.5339 53.7697 61.0294 53.5473C60.5249 53.3165 60.1273 52.9916 59.8366 52.5726C59.5459 52.1451 59.3963 51.6278 59.3877 51.0207H61.1192C61.1363 51.4397 61.2859 51.7945 61.5681 52.0853C61.8588 52.3674 62.2564 52.5085 62.7608 52.5085C63.1969 52.5085 63.5432 52.4059 63.7997 52.2007C64.0562 51.9869 64.1844 51.7048 64.1844 51.3542C64.1844 50.9865 64.069 50.7001 63.8382 50.4949C63.6159 50.2897 63.3166 50.123 62.9404 49.9947C62.5642 49.8665 62.1623 49.7297 61.7348 49.5843C61.0422 49.3449 60.5121 49.0371 60.1444 48.6609C59.7853 48.2847 59.6058 47.7845 59.6058 47.1603C59.5972 46.6302 59.7212 46.177 59.9777 45.8008C60.2428 45.416 60.6019 45.1211 61.055 44.9158C61.5082 44.7021 62.0298 44.5952 62.6197 44.5952C63.2183 44.5952 63.7441 44.7021 64.1973 44.9158C64.659 45.1296 65.0181 45.4289 65.2746 45.8136C65.5397 46.1984 65.6807 46.6558 65.6978 47.1859H63.9408C63.9322 46.8696 63.8082 46.5917 63.5688 46.3523C63.338 46.1043 63.0131 45.9804 62.5941 45.9804C62.235 45.9718 61.9314 46.0616 61.6835 46.2497C61.4441 46.4292 61.3244 46.6943 61.3244 47.0449C61.3244 47.3441 61.4184 47.5835 61.6065 47.7631C61.7946 47.9341 62.0512 48.0794 62.3761 48.1992C62.701 48.3189 63.0729 48.4471 63.4919 48.5839C63.9365 48.7378 64.3426 48.9174 64.7103 49.1226C65.0779 49.3278 65.3729 49.6014 65.5952 49.9434C65.8175 50.2769 65.9287 50.7087 65.9287 51.2388C65.9287 51.709 65.809 52.1451 65.5696 52.547C65.3302 52.9488 64.9753 53.2737 64.5051 53.5217C64.0348 53.7611 63.4577 53.8808 62.7737 53.8808Z" fill="white"/>
<path d="M71.5833 53.7269V46.0701H68.9669V44.7491H75.8542V46.0701H73.225V53.7269H71.5833Z" fill="white"/>
<path d="M79.3147 53.7269V44.7491H82.6108C83.3291 44.7491 83.919 44.8731 84.3808 45.1211C84.851 45.3605 85.2016 45.6896 85.4324 46.1086C85.6633 46.519 85.7787 46.9765 85.7787 47.4809C85.7787 48.0281 85.6334 48.5283 85.3427 48.9815C85.0605 49.4347 84.6159 49.7639 84.0088 49.9691L85.8685 53.7269H83.9832L82.3159 50.1871H80.9564V53.7269H79.3147ZM80.9564 48.9815H82.5082C83.0555 48.9815 83.4573 48.849 83.7138 48.5839C83.9703 48.3189 84.0986 47.9683 84.0986 47.5322C84.0986 47.1047 83.9703 46.7627 83.7138 46.5062C83.4659 46.2497 83.0597 46.1214 82.4954 46.1214H80.9564V48.9815Z" fill="white"/>
<path d="M89.55 53.7269V44.7491H91.1916V53.7269H89.55Z" fill="white"/>
<path d="M99.2418 53.8808C98.3355 53.8808 97.5574 53.6884 96.9076 53.3037C96.2577 52.9104 95.7576 52.3674 95.407 51.6748C95.0564 50.9737 94.8812 50.1657 94.8812 49.2508C94.8812 48.336 95.0564 47.528 95.407 46.8268C95.7576 46.1257 96.2577 45.5785 96.9076 45.1852C97.5574 44.7919 98.3355 44.5952 99.2418 44.5952C100.319 44.5952 101.2 44.8645 101.884 45.4032C102.576 45.9333 103.008 46.6815 103.179 47.6477H101.371C101.26 47.1603 101.02 46.7798 100.653 46.5062C100.293 46.224 99.8147 46.083 99.2161 46.083C98.3868 46.083 97.7369 46.3651 97.2667 46.9294C96.7964 47.4938 96.5613 48.2676 96.5613 49.2508C96.5613 50.2341 96.7964 51.0079 97.2667 51.5722C97.7369 52.128 98.3868 52.4059 99.2161 52.4059C99.8147 52.4059 100.293 52.2776 100.653 52.0211C101.02 51.7561 101.26 51.3927 101.371 50.931H103.179C103.008 51.8544 102.576 52.5769 101.884 53.0985C101.2 53.62 100.319 53.8808 99.2418 53.8808Z" fill="white"/>
<path d="M108.855 53.7269V46.0701H106.238V44.7491H113.126V46.0701H110.496V53.7269H108.855Z" fill="white"/>
<path d="M135.75 22.3125C135.75 22.3125 132.787 21.038 130.435 20.5372C129.711 20.3828 129.273 19.6944 129.492 19.0669L130.174 17.109C130.174 17.109 123.684 18.7831 121.202 20.7675C121.202 20.7675 124.746 14.8392 127.907 11.5868L125.586 11.6898C124.393 11.7427 123.351 10.8843 123.295 9.80355L123.098 6.02101L117.046 10.7907C116.24 11.4258 115 11.3698 114.205 10.6619L113.426 9.96781C113.426 9.96781 112.319 17.5079 112.401 20.3786L107.943 16.8572L108.076 18.1612C108.193 19.3213 107.196 20.2852 105.909 20.2549L101.894 20.1603L104.219 24.4706C104.657 25.2833 104.249 26.2316 103.334 26.5274L102.028 26.9491C102.028 26.9491 106.824 27.8744 110.22 30.2457C110.649 30.5449 110.801 31.0642 110.594 31.4981L109.79 33.1785C109.79 33.1785 111.39 32.3968 113.681 32.3495C113.499 28.4898 114.199 23.0162 118.071 17.3627C118.071 17.3627 116.088 20.7983 115.271 25.5189C113.711 32.7083 116.027 38.0973 116.027 38.0973L116.534 38.2032C117.386 38.3812 118.072 37.6288 117.717 36.9014C117.058 35.5445 116.579 34.1104 116.291 32.6346C117.423 32.9108 118.622 33.4146 119.819 34.2646L119.832 31.4346C119.834 30.9752 120.135 30.5723 120.599 30.4012C122.122 29.841 125.943 28.6914 132.246 28.4299L130.808 26.8885C130.361 26.4067 130.406 25.7063 130.916 25.3156C132.173 24.3513 134.436 22.7094 135.75 22.3125Z" fill="#EC8525"/>
<path d="M124.596 10.1534C126.047 9.58104 127.627 9.29488 129.337 9.29488C132.854 9.29488 135.823 10.5063 138.242 12.9291C140.663 15.3534 141.874 18.466 141.874 22.2669C141.874 24.7428 140.847 27.5757 138.792 30.7657C136.737 33.9571 133.585 37.5056 129.337 41.4111C126.049 38.3894 123.419 35.5814 121.445 32.9872L121.873 36.6435C120.479 35.8825 119.117 35.3985 117.82 35.1162C120.556 38.7989 124.395 42.7454 129.337 46.9556C134.944 42.1783 139.132 37.7406 141.901 33.6425C144.669 29.5459 146.053 25.754 146.053 22.2669C146.053 17.0362 144.372 12.8692 141.011 9.76564C137.651 6.66211 133.759 5.11035 129.337 5.11035C128.669 5.11035 128.013 5.14576 127.369 5.21656C126.377 6.83586 125.43 8.55489 124.596 10.1534Z" fill="white"/>
</svg>
