<svg width="35" height="35" viewBox="0 0 35 35" fill="none" xmlns="http://www.w3.org/2000/svg">
<path  fillRule="evenodd"
      clipRule="evenodd" d="M31.8548 27.5121C33.8372 24.6753 35 21.2234 35 17.5C35 7.83502 27.165 0 17.5 0C7.83502 0 0 7.83502 0 17.5C0 27.165 7.83502 35 17.5 35C21.1147 35 24.4734 33.9041 27.262 32.0264L33.6 33.6L31.8548 27.5121Z" fill="#252D43"/>
<path  fillRule="evenodd"
      clipRule="evenodd" d="M15.4375 21.4567L16.0114 7.26455L20.288 7.47701L19.0243 21.6244L15.4375 21.4567ZM17.1202 27.6682C16.5262 27.6297 16.0494 27.416 15.6898 27.027C15.3506 26.6202 15.1977 26.1581 15.2313 25.6408C15.2661 25.1043 15.4773 24.6658 15.865 24.3253C16.273 23.9669 16.7741 23.807 17.3681 23.8455C17.9237 23.8815 18.3712 24.103 18.7104 24.5098C19.07 24.8987 19.2324 25.3614 19.1977 25.898C19.1641 26.4153 18.9433 26.8532 18.5352 27.2116C18.1475 27.552 17.6759 27.7042 17.1202 27.6682Z" fill="white"/>
</svg>
