<svg width="20" height="21" viewBox="0 0 20 21" fill="none" xmlns="http://www.w3.org/2000/svg">
<path  fillRule="evenodd"
      clipRule="evenodd" d="M19.3894 10.1C19.6641 9.81922 19.8554 9.46762 19.9419 9.08445C20.0285 8.70128 20.0068 8.30161 19.8794 7.93002C19.7599 7.55733 19.5381 7.22569 19.2393 6.97288C18.9406 6.72006 18.5768 6.55622 18.1894 6.50002L13.8994 5.84002C13.8794 5.83422 13.861 5.82403 13.8454 5.81019C13.8298 5.79635 13.8176 5.77921 13.8094 5.76002L11.9294 1.76002C11.7646 1.38546 11.4944 1.06692 11.1517 0.843206C10.809 0.619491 10.4087 0.500254 9.99945 0.500018C9.59495 0.498345 9.19857 0.613532 8.85797 0.831732C8.51736 1.04993 8.24702 1.36186 8.07945 1.73002L6.19945 5.73002C6.18919 5.74952 6.17501 5.76669 6.1578 5.78046C6.14059 5.79423 6.12073 5.80429 6.09945 5.81002L1.81945 6.50002C1.43154 6.55781 1.06727 6.72206 0.767149 6.97452C0.467025 7.22698 0.242812 7.55774 0.119448 7.93002C-0.00325409 8.3029 -0.0215255 8.70226 0.0666153 9.08479C0.154756 9.46733 0.345945 9.81843 0.619448 10.1L3.77945 13.35C3.78855 13.3705 3.79325 13.3926 3.79325 13.415C3.79325 13.4374 3.78855 13.4596 3.77945 13.48L3.03945 18.02C2.97066 18.4154 3.0155 18.8222 3.16877 19.1931C3.32205 19.564 3.57745 19.8838 3.90528 20.1152C4.23312 20.3467 4.61993 20.4804 5.02073 20.5007C5.42154 20.521 5.81988 20.4272 6.16945 20.23L9.89945 18.16C9.91798 18.1504 9.93856 18.1453 9.95945 18.1453C9.98034 18.1453 10.0009 18.1504 10.0194 18.16L13.7494 20.23C14.0995 20.4229 14.4967 20.5134 14.8958 20.4913C15.2948 20.4691 15.6796 20.335 16.006 20.1045C16.3325 19.874 16.5876 19.5563 16.742 19.1877C16.8965 18.819 16.9441 18.4144 16.8794 18.02L16.1894 13.5C16.1789 13.4818 16.1734 13.4611 16.1734 13.44C16.1734 13.419 16.1789 13.3983 16.1894 13.38L19.3894 10.1Z" fill="#EC8525"/>
</svg>
