<svg width="27" height="28" viewBox="0 0 27 28" fill="none" xmlns="http://www.w3.org/2000/svg">
<rect  fillRule="evenodd"
      clipRule="evenodd" y="0.5" width="27" height="27" rx="13.5" fill="#252D43"/>
<path  fillRule="evenodd"
      clipRule="evenodd"  d="M13.5276 13.1471C15.3632 13.1471 16.8512 11.6591 16.8512 9.82355C16.8512 7.988 15.3632 6.5 13.5276 6.5C11.6921 6.5 10.2041 7.988 10.2041 9.82355C10.2041 11.6591 11.6921 13.1471 13.5276 13.1471ZM10.718 13.415H11.8022C12.3051 13.7211 12.8958 13.8973 13.5276 13.8973C14.1594 13.8973 14.75 13.7211 15.2529 13.415H16.2838C17.9294 13.415 19.2635 14.749 19.2635 16.3947V19.7589H7.73828V16.3946C7.73828 14.749 9.07233 13.415 10.718 13.415Z" fill="white"/>
</svg>
